<svg xmlns="http://www.w3.org/2000/svg" viewBox="-10 -10 1390 1180">
  <style>
    @import url('https://fonts.googleapis.com/css2?family=IBM+Plex+Mono&amp;display=swap');

    :root {
      --black:      #181819;
      --gray:       #313135;
      --light-gray: #7c7c83;
      --white:      #f2f2f3;
      --magenta:    #b660c3;
      --blue:       #0082e6;
      --red:        #e5484d;
      --green:      #2f8e83;
      --yellow:     #ffb224;
    }
 
    text { font: 24px "IBM Plex Mono", monospace; text-anchor: middle; dominant-baseline: middle; letter-spacing: 0.1ex }
    .product text, .system text { font: 30px sans-serif }
    .system text { fill: var(--black) }
    .product text { fill: var(--white) }
    .data text { fill: var(--gray); stroke: var(--gray) }
    .step text { fill: var(--white) }

    .product > g > rect, .connector circle { fill: var(--gray) }
    .data rect { fill: var(--white); stroke: var(--gray); stroke-width: 4 }
    .connector path { fill: var(--light-gray) }
    .arrow { fill: var(--light-gray); stroke: var(--light-gray); stroke-width: 4 }
    .arrow .line { fill: none }
    #external rect { fill: #b0b0b0 }
    .step circle { fill: var(--magenta) }

    @media (prefers-color-scheme: dark) {
      .system text { fill: var(--white) }
      .step text { fill: var(--black); stroke: var(--black) }
      .data text { fill: var(--white); stroke: var(--white) }
      .data rect { fill: var(--black); stroke: var(--white) }
      #external rect { fill: #484848 }
    }
  </style>

  <defs>
    <pattern id="external" x="0" y="0" width="12" height="12" patternUnits="userSpaceOnUse">
      <rect x="0" y="0" width="3" height="3" />
      <rect x="6" y="6" width="3" height="3" />
    </pattern>
  </defs>

  <g class="arrow">
    <g transform="translate(250 100)">
      <path class="line" d="M 0 0 v 104 h -125 v 24 m 125 -24 h 125 v 24" />
      <path d="M -125 130 h -9 l 9 16 l 9 -16 z" />
      <path d="M 125 130 h -9 l 9 16 l 9 -16 z" />
    </g>

    <g transform="translate(250 480)">
      <path d="M 0 0 v 100 m 0 0 h -9 l 9 16 l 9 -16 z" />
    </g>

    <g transform="translate(500 635)">
      <path d="M 0 0 h 350 m 0 0 v -9 l 16 9 l -16 9 z" />
    </g>

    <g transform="translate(870 710)">
      <path d="M 0 0 h -350 m 0 0 v -9 l -16 9 l 16 9 z" />
    </g>

    <g transform="translate(500 835)">
      <path d="M 0 0 h 350 m 0 0 v -9 l 16 9 l -16 9 z" />
    </g>

    <g transform="translate(870 910)">
      <path d="M 0 0 h -350 m 0 0 v -9 l -16 9 l 16 9 z" />
    </g>

    <g transform="translate(250 775)">
      <path d="M 0 0 v 104 m 0 0 h -9 l 9 16 l 9 -16 z" />
    </g>

    <g transform="translate(250 950)">
      <path d="M 0 0 v 100 m 0 0 h -9 l 9 16 l 9 -16 z" />
    </g>
  </g>

  
  <g class="system">
    <g transform="translate(0 0)">
      <rect x="0" y="0" width="500" height="100" fill="url(#external)" />
      <text x="250" y="50">Trading partner’s system</text>
    </g>

    <g transform="translate(0 1070)">
      <rect x="0" y="0" width="500" height="100" fill="url(#external)" />
      <text x="250" y="50">Webhook</text>
    </g>
  </g>


  <g class="product">
    <g transform="translate(0 251)">
      <rect x="0" y="0" width="248" height="90" />
      <text x="124" y="45">SFTP</text>
    </g>

    <g transform="translate(252 251)">
      <rect x="0" y="0" width="248" height="90" />
      <text x="124" y="45">Buckets UI</text>
    </g>

    <g transform="translate(0 344)">
      <rect x="0" y="0" width="500" height="136" />
      <text x="250" y="68">Buckets</text>

      <g transform="translate(140, 51)">
        <rect x="0" y="0" width="8" height="8" fill="var(--magenta)" />
        <circle cx="28" cy="4" r="4" fill="var(--yellow)" />
        <rect x="8" y="8" width="16" height="8" fill="var(--magenta)" />
        <rect x="0" y="16" width="8" height="8" fill="var(--white)" />
        <rect x="24" y="16" width="8" height="8" fill="var(--white)" />
        <rect x="8" y="24" width="16" height="8" fill="var(--white)" />
      </g>
    </g>

    <g transform="translate(0 600)">
      <rect x="0" y="0" width="500" height="350" />
      <text x="250" y="175">Functions</text>

      <g transform="translate(130, 158)">
        <circle cx="4" cy="4" r="4" fill="var(--magenta)" />
        <rect x="16" y="0" width="16" height="8" fill="var(--white)" />
        <rect x="8" y="8" width="8" height="8" fill="var(--white)" />
        <rect x="0" y="16" width="8" height="8" fill="var(--white)" />
        <rect x="16" y="16" width="16" height="8" fill="var(--red)" />
        <rect x="8" y="24" width="8" height="8" fill="var(--red)" />
      </g>
    </g>

    <g transform="translate(870 600)">
      <rect x="0" y="0" width="246" height="150" />
      <text x="122.5" y="100">EDI Translate</text>

      <g transform="translate(110, 35)">
        <rect x="0" y="0" width="16" height="8" fill="var(--green)" />
        <rect x="24" y="0" width="8" height="8" fill="var(--green)" />
        <rect x="8" y="8" width="16" height="8" fill="var(--white)" />
        <rect x="0" y="16" width="16" height="8" fill="var(--white)" />
        <rect x="24" y="16" width="8" height="8" fill="var(--white)" />
        <circle cx="20" cy="28" r="4" fill="var(--blue)" />
      </g>
    </g>

    <g transform="translate(1123 600)">
      <rect x="0" y="0" width="246" height="150" />
      <text x="122.5" y="100">Guides</text>

      <g transform="translate(110, 35)">
        <rect x="8" y="0" width="16" height="8" fill="var(--white)" />
        <rect x="0" y="8" width="8" height="8" fill="var(--white)" />
        <circle cx="30" cy="12" r="4" fill="var(--green)" />
        <rect x="0" y="24" width="32" height="8" fill="var(--blue)" />
      </g>
    </g>

    <g transform="translate(870 800)">
      <rect x="0" y="0" width="500" height="150" />
      <text x="250" y="75">Mappings</text>

      <g transform="translate(130, 59)">
        <circle cx="4" cy="4" r="4" fill="var(--magenta)" />
        <rect x="16" y="0" width="8" height="8" fill="var(--white)" />
        <rect x="8" y="8" width="8" height="8" fill="var(--white)" />
        <rect x="24" y="8" width="8" height="8" fill="var(--blue)" />
        <rect x="0" y="16" width="8" height="8" fill="var(--white)" />
        <rect x="16" y="16" width="16" height="8" fill="var(--blue)" />
        <rect x="8" y="24" width="8" height="8" fill="var(--white)" />
      </g>
    </g>
  </g>

  <g class="connector">
    <g transform="translate(125 342)">
      <circle cx="0" cy="0" r="20" />
      <path d="M 0 4 l -6 -6 h 12 l 6 -6" />
    </g>

    <g transform="translate(375 342)">
      <circle cx="0" cy="0" r="20" />
      <path d="M 0 4 l -6 -6 h 12 l 6 -6" />
    </g>

    <g transform="translate(1120 675)">
      <circle cx="0" cy="0" r="20" />
      <path d="M -5 0 l 6 -6 v 12 l -6 -6" />
    </g>
  </g>


  <g class="data">
    <g transform="translate(200 130)">
      <rect x="0" y="0" width="100" height="50" />
      <text x="50" y="27">EDI</text>
    </g>

    <g transform="translate(200 510)">
      <rect x="0" y="0" width="100" height="50" />
      <text x="50" y="27">EDI</text>
    </g>

    <g transform="translate(630 610)">
      <rect x="0" y="0" width="100" height="50" />
      <text x="50" y="27">EDI</text>
    </g>

    <g transform="translate(560 685)">
      <rect x="0" y="0" width="250" height="50" />
      <text x="125" y="27">EDI-LIKE JSON</text>
    </g>

    <g transform="translate(560 810)">
      <rect x="0" y="0" width="250" height="50" />
      <text x="125" y="27">EDI-LIKE JSON</text>
    </g>

    <g transform="translate(575 885)">
      <rect x="0" y="0" width="220" height="50" />
      <text x="110" y="27">CUSTOM JSON</text>
    </g>

    <g transform="translate(140 975)">
      <rect x="0" y="0" width="220" height="50" />
      <text x="110" y="27">CUSTOM JSON</text>
    </g>
  </g>


  <g class="step">
    <g transform="translate(50 250)">
      <circle cx="0" cy="0" r="25" />
      <text x="0.5" y="1">1A</text>
    </g>

    <g transform="translate(300 250)">
      <circle cx="0" cy="0" r="25" />
      <text x="0.5" y="1">1B</text>
    </g>

    <g transform="translate(250 630)">
      <circle cx="0" cy="0" r="25" />
      <text x="0.5" y="1">2</text>
    </g>

    <g transform="translate(500 670)">
      <circle cx="0" cy="0" r="25" />
      <text x="0.5" y="1">3</text>
    </g>

    <g transform="translate(1120 750)">
      <circle cx="0" cy="0" r="25" />
      <text x="0.5" y="1">4</text>
    </g>

    <g transform="translate(500 870)">
      <circle cx="0" cy="0" r="25" />
      <text x="0.5" y="1">5</text>
    </g>

    <g transform="translate(250 920)">
      <circle cx="0" cy="0" r="25" />
      <text x="0.5" y="1">6</text>
    </g>
  </g>
</svg>