<svg stroke-width=".501" stroke-linejoin="bevel" fill-rule="evenodd" xmlns="http://www.w3.org/2000/svg" overflow="visible" width="751.26" height="695.324" viewBox="0 0 563.445 521.493"><style>@import url(https://fonts.googleapis.com/css2?family=Fira+Code&amp;family=Roboto&amp;display=swap);</style><defs><marker id="DefaultArrow7" markerUnits="strokeWidth" viewBox="0 0 1 1" markerWidth="1" markerHeight="1" overflow="visible" orient="auto"><path d="M18-54h90L63 0l45 54H18L-36 0z" transform="scale(.00926)"/></marker><marker id="DefaultArrow2" markerUnits="strokeWidth" viewBox="0 0 1 1" markerWidth="1" markerHeight="1" overflow="visible" orient="auto"><path d="M-9 54V-54L117 0z" transform="scale(.00926)"/></marker><marker id="DefaultArrow4" markerUnits="strokeWidth" viewBox="0 0 1 1" markerWidth="1" markerHeight="1" overflow="visible" orient="auto"><path d="M-9 0v-45c0-6.708 11.808-11.58 18-9L117-9c3.916 1.631 9 4.758 9 9s-5.084 7.369-9 9L9 54c-6.192 2.58-18-2.292-18-9z" transform="scale(.00926)"/></marker><marker id="DefaultArrow5" markerUnits="strokeWidth" viewBox="0 0 1 1" markerWidth="1" markerHeight="1" overflow="visible" orient="auto"><path d="M-54 0c0 29.807 24.193 54 54 54S54 29.807 54 0 29.807-54 0-54-54-29.807-54 0z" transform="scale(.00926)"/></marker><marker id="DefaultArrow6" markerUnits="strokeWidth" viewBox="0 0 1 1" markerWidth="1" markerHeight="1" overflow="visible" orient="auto"><path d="M-63 0 0 63 63 0 0-63z" transform="scale(.00926)"/></marker><marker id="DefaultArrow3" markerUnits="strokeWidth" viewBox="0 0 1 1" markerWidth="1" markerHeight="1" overflow="visible" orient="auto"><path d="M-27 54-9 0l-18-54L135 0z" transform="scale(.00926)"/></marker><marker id="DefaultArrow8" markerUnits="strokeWidth" viewBox="0 0 1 1" markerWidth="1" markerHeight="1" overflow="visible" orient="auto"><path d="m-36 0 54-54h36L18-18h9l36-36h36L63-18h9l36-36h36L90 0l54 54h-36L72 18h-9l36 36H63L27 18h-9l36 36H18z" transform="scale(.00926)"/></marker><marker id="DefaultArrow9" markerUnits="strokeWidth" viewBox="0 0 1 1" markerWidth="1" markerHeight="1" overflow="visible" orient="auto"><path d="M0 45-45 0 0-45 45 0zm0 18L-63 0 0-63 63 0z" transform="scale(.00926)"/></marker><filter id="StainedFilter"><feBlend mode="multiply" in2="BackgroundImage" in="SourceGraphic" result="blend"/><feComposite in="blend" in2="SourceAlpha" operator="in" result="comp"/></filter><filter id="BleachFilter"><feBlend mode="screen" in2="BackgroundImage" in="SourceGraphic" result="blend"/><feComposite in="blend" in2="SourceAlpha" operator="in" result="comp"/></filter><filter id="InvertTransparencyBitmapFilter"><feComponentTransfer><feFuncR type="gamma" amplitude="1.055" exponent=".417" offset="-.055"/><feFuncG type="gamma" amplitude="1.055" exponent=".417" offset="-.055"/><feFuncB type="gamma" amplitude="1.055" exponent=".417" offset="-.055"/></feComponentTransfer><feComponentTransfer><feFuncR type="linear" slope="-1" intercept="1"/><feFuncG type="linear" slope="-1" intercept="1"/><feFuncB type="linear" slope="-1" intercept="1"/><feFuncA type="linear"/></feComponentTransfer><feComponentTransfer><feFuncR type="gamma" exponent="2.4"/><feFuncG type="gamma" exponent="2.4"/><feFuncB type="gamma" exponent="2.4"/></feComponentTransfer></filter></defs><g id="Document" fill="none" stroke="#000" font-family="Times New Roman" font-size="16" transform="scale(1 -1)"><g id="Spread" transform="translate(0 -521.493)"><path d="M0 521.493V0h563.445v521.493H0z" fill="#ccc" stroke-linecap="round" stroke-width=".75" stroke="none" stroke-linejoin="miter" stroke-miterlimit="79.84" id="Reading EDI - Background"/><g id="Reading EDI" stroke-miterlimit="79.84"><path d="M29.025 58.777V21.278h125.529v37.499H29.025z" fill="#f1f1f1" stroke="none" stroke-width=".75" stroke-linecap="round" stroke-linejoin="miter"/><text xml:space="preserve" transform="matrix(1 0 0 -1 37.998 35.586)" fill="#333" stroke-width=".25" stroke="none" stroke-linejoin="round" stroke-linecap="round" font-size="12" font-family="Roboto"><tspan x="29.427" y="0">webhook</tspan></text><path d="m91.886 54.431 4.208 4.45H87.68l4.206-4.45z" id="Group" stroke-linejoin="miter" stroke-linecap="round" stroke="#ccc" stroke-width=".75" fill="#ccc"/><g id="Group_1" stroke-linejoin="miter" stroke-linecap="round"><path d="m91.781 54.005 4.208 4.45h-8.414l4.206-4.45z" stroke-width=".75" fill="#fff" stroke="#333"/><path d="m91.782 54.509 5.028 5.341H86.753l5.029-5.341z" stroke-width=".882" fill="#ccc" stroke="none"/></g><path d="M91.793 460.119v-51.916M92.16 299.272v-53.95" stroke-width=".75" stroke-linejoin="miter" stroke="#333"/><path d="M29.021 245.719V111.894H154.55v133.825H29.021z" stroke="none" fill="#333" stroke-width=".75" stroke-linecap="round" stroke-linejoin="miter"/><text xml:space="preserve" transform="matrix(1 0 0 -1 91.586 214.975)" fill="#f1f1f1" font-size="12" font-family="Roboto" stroke="none" stroke-linecap="round" stroke-linejoin="round" stroke-width=".375"><tspan x="-26.317" y="0">Functions</tspan></text><path d="M107.54 239.426a6.634 6.634 0 0 0-6.89 6.362 6.634 6.634 0 0 0 6.362 6.89 6.634 6.634 0 0 0 6.89-6.362 6.634 6.634 0 0 0-6.362-6.89z" stroke-linecap="round" stroke="#333" fill="#ffffd6" stroke-width=".75" stroke-linejoin="miter"/><text xml:space="preserve" transform="matrix(1 0 0 -1 107.237 242.809)" font-size="9" font-family="Roboto" stroke-linecap="round" fill="#333" stroke="none" stroke-linejoin="round" stroke-width=".375"><tspan x="-2.527" y="0">2</tspan></text><path d="M279.74 169.574v-57.927h125.529v57.927H279.74zM281.412 245.912v-60.175h125.529v60.175H281.412z" fill="#333" stroke="none" stroke-width=".75" stroke-linecap="round" stroke-linejoin="miter"/><text xml:space="preserve" transform="matrix(1 0 0 -1 315.843 137.534)" fill="#f1f1f1" font-size="12" font-family="Roboto" stroke="none" stroke-linecap="round" stroke-linejoin="round" stroke-width=".25"><tspan x="0" y="0">Mappings</tspan></text><text xml:space="preserve" transform="matrix(1 0 0 -1 308.299 211.383)" fill="#f1f1f1" font-size="12" font-family="Roboto" stroke="none" stroke-linecap="round" stroke-linejoin="round" stroke-width=".25"><tspan x="0" y="0">EDI Translate</tspan></text><path d="M408.383 245.912v-60.325h125.529v60.325H408.383z" fill="#333" stroke="none" stroke-width=".75" stroke-linecap="round" stroke-linejoin="miter"/><text xml:space="preserve" transform="matrix(1 0 0 -1 453.678 210.732)" fill="#f1f1f1" font-size="12" font-family="Roboto" stroke="none" stroke-linecap="round" stroke-linejoin="round" stroke-width=".25"><tspan x="0" y="0">Guides</tspan></text><text xml:space="preserve" transform="matrix(1 0 0 -1 196.653 160.457)" fill="#333" font-size="10" stroke="none" stroke-linecap="round" stroke-linejoin="round" stroke-width=".25" font-family="Roboto"><tspan x="0" y="0">EDI-like JSON</tspan></text><path d="m275.749 123.767 4.45-4.208v8.414l-4.45-4.206z" id="Group_2" stroke-linejoin="miter" stroke-linecap="round" stroke="#333" stroke-width=".75" fill="#333"/><path d="m150.196 123.917 4.45-4.208v8.414l-4.45-4.206z" id="Group_3" stroke-linejoin="miter" stroke-linecap="round" stroke="#ccc" stroke-width=".75" fill="#ccc"/><path d="M147.095 123.856h139.028" stroke="#333" stroke-width=".75" stroke-linejoin="miter"/><text xml:space="preserve" transform="matrix(1 0 0 -1 178.492 127.145)" fill="#333" font-size="10" stroke="none" stroke-linecap="round" stroke-linejoin="round" stroke-width=".25" font-family="Roboto"><tspan x="0" y="0">custom JSON</tspan></text><path d="m157.468 156.767-4.45-4.208v8.414l4.45-4.206z" id="Group_4" stroke-linejoin="miter" stroke-linecap="round" stroke="#333" stroke-width=".75" fill="#333"/><path d="m283.771 156.917-4.45-4.208v8.414l4.45-4.206z" id="Group_5" stroke-linejoin="miter" stroke-linecap="round" stroke="#ccc" stroke-width=".75" fill="#ccc"/><path d="M286.123 156.856H147.095" stroke="#333" stroke-width=".75" stroke-linejoin="miter"/><g id="Group_6" stroke-linejoin="miter" stroke-width=".75"><path d="M173.575 171.289V150.02h16.391v21.269h-16.391z" fill="#ccc" stroke="#ccc" stroke-linecap="round"/><path d="M174.298 170.524v-19.837h14.879l.002 14.879-4.96 4.958h-9.921z" stroke="#333" fill="#f1f1f1" stroke-linecap="round"/><path d="M184.219 170.524v-4.958l4.66-.005" stroke="#333"/></g><path d="m277.421 198.543 4.45-4.208v8.414l-4.45-4.206z" id="Group_7" stroke-linejoin="miter" stroke-linecap="round" stroke="#333" stroke-width=".75" fill="#333"/><path d="m151.868 198.693 4.45-4.208v8.414l-4.45-4.206z" id="Group_8" stroke-linejoin="miter" stroke-linecap="round" stroke="#ccc" stroke-width=".75" fill="#ccc"/><path d="M148.767 198.632h139.028" stroke="#333" stroke-width=".75" stroke-linejoin="miter"/><path d="m159.14 231.543-4.45-4.208v8.414l4.45-4.206z" id="Group_9" stroke-linejoin="miter" stroke-linecap="round" stroke="#333" stroke-width=".75" fill="#333"/><path d="m285.443 231.693-4.45-4.208v8.414l4.45-4.206z" id="Group_10" stroke-linejoin="miter" stroke-linecap="round" stroke="#ccc" stroke-width=".75" fill="#ccc"/><path d="M287.795 231.632H148.767" stroke="#333" stroke-width=".75" stroke-linejoin="miter"/><g id="Group_11" stroke-linejoin="miter" stroke-width=".75"><path d="M247.228 137.731v-21.269h16.391v21.269h-16.391z" stroke="#ccc" fill="#ccc" stroke-linecap="round"/><path d="M247.951 136.966v-19.837h14.879l.002 14.879-4.96 4.958h-9.921z" stroke="#333" fill="#f1f1f1" stroke-linecap="round"/><path d="M257.872 136.966v-4.958l4.66-.005" stroke="#333"/></g><text xml:space="preserve" transform="matrix(1 0 0 -1 216.453 235.336)" fill="#333" font-size="10" stroke="none" stroke-linecap="round" stroke-linejoin="round" stroke-width=".25" font-family="Roboto"><tspan x="0" y="0">EDI</tspan></text><text xml:space="preserve" transform="matrix(1 0 0 -1 179.572 202.024)" fill="#333" font-size="10" stroke="none" stroke-linecap="round" stroke-linejoin="round" stroke-width=".25" font-family="Roboto"><tspan x="0" y="0">EDI-like JSON</tspan></text><g id="Group_12" stroke-linejoin="miter" stroke-width=".75"><path d="M194.125 246.168v-21.269h16.391v21.269h-16.391z" stroke="#ccc" fill="#ccc" stroke-linecap="round"/><path d="M194.848 245.403v-19.837h14.879l.002 14.879-4.96 4.958h-9.921z" stroke="#333" fill="#f1f1f1" stroke-linecap="round"/><path d="M204.769 245.403v-4.958l4.66-.005" stroke="#333"/></g><g id="Group_13" stroke-linejoin="miter" stroke-width=".75"><path d="M246.572 212.609V191.34h16.391v21.269h-16.391z" stroke="#ccc" fill="#ccc" stroke-linecap="round"/><path d="M247.295 211.844v-19.837h14.879l.002 14.879-4.96 4.958h-9.921z" stroke="#333" fill="#f1f1f1" stroke-linecap="round"/><path d="M257.216 211.844v-4.958l4.66-.005" stroke="#333"/></g><path d="M154.532 134.552a6.634 6.634 0 0 0-6.89 6.362 6.634 6.634 0 0 0 6.362 6.89 6.634 6.634 0 0 0 6.89-6.362 6.634 6.634 0 0 0-6.362-6.89z" stroke-linecap="round" stroke="#333" fill="#ffffd6" stroke-width=".75" stroke-linejoin="miter"/><text xml:space="preserve" transform="matrix(1 0 0 -1 154.354 137.979)" font-size="9" font-family="Roboto" stroke-linecap="round" fill="#333" stroke="none" stroke-linejoin="round" stroke-width=".375"><tspan x="-2.527" y="0">5</tspan></text><path d="M154.676 209.324a6.634 6.634 0 0 0-6.89 6.362 6.634 6.634 0 0 0 6.362 6.89 6.634 6.634 0 0 0 6.89-6.362 6.634 6.634 0 0 0-6.362-6.89z" stroke-linecap="round" stroke="#333" fill="#ffffd6" stroke-width=".75" stroke-linejoin="miter"/><text xml:space="preserve" transform="matrix(1 0 0 -1 154.396 212.75)" font-size="9" font-family="Roboto" stroke-linecap="round" fill="#333" stroke="none" stroke-linejoin="round" stroke-width=".375"><tspan x="-2.527" y="0">3</tspan></text><path d="m402.445 214.799 4.45-4.208v8.414l-4.45-4.206z" id="Group_14" stroke-linejoin="miter" stroke-linecap="round" stroke="#ccc" stroke-width=".75" fill="#ccc"/><path d="m404.32 214.799 4.45-4.208v8.414l-4.45-4.206z" id="Group_15" stroke-linejoin="miter" stroke-linecap="round" stroke="#333" stroke-width=".75" fill="#333"/><path d="M29.025 359.313v-56.249h125.529v56.249H29.025z" stroke="none" fill="#333" stroke-width=".75" stroke-linecap="round" stroke-linejoin="miter"/><text xml:space="preserve" transform="matrix(1 0 0 -1 70.133 326.747)" fill="#f1f1f1" font-size="12" font-family="Roboto" stroke="none" stroke-linecap="round" stroke-linejoin="round" stroke-width=".25"><tspan x="0" y="0">Buckets</tspan></text><path d="M29.079 390.412v-29.999H91.33v29.999H29.079z" stroke="none" fill="#333" stroke-width=".75" stroke-linecap="round" stroke-linejoin="miter"/><text xml:space="preserve" transform="matrix(1 0 0 -1 45.951 371.146)" fill="#f1f1f1" font-size="12" font-family="Roboto" stroke="none" stroke-linecap="round" stroke-linejoin="round" stroke-width=".25"><tspan x="0" y="0">SFTP</tspan></text><g id="Group_16" stroke-linejoin="miter" stroke-linecap="round" stroke="#333" stroke-width=".75" fill="#333"><path d="m92.225 299.344 4.208 4.45h-8.414l4.206-4.45z" id="Group_17"/></g><path d="M408.041 189.285a6.634 6.634 0 0 0-6.89 6.362 6.634 6.634 0 0 0 6.362 6.89 6.634 6.634 0 0 0 6.89-6.362 6.634 6.634 0 0 0-6.362-6.89z" stroke-linecap="round" stroke="#333" fill="#ffffd6" stroke-width=".75" stroke-linejoin="miter"/><text xml:space="preserve" transform="matrix(1 0 0 -1 407.616 192.755)" font-size="9" font-family="Roboto" stroke-linecap="round" fill="#333" stroke="none" stroke-linejoin="round" stroke-width=".375"><tspan x="-2.527" y="0">4</tspan></text><path d="m91.755 107.424 4.208 4.45h-8.414l4.206-4.45z" id="Group_18" stroke-linejoin="miter" stroke-linecap="round" stroke="#333" stroke-width=".75" fill="#333"/><text xml:space="preserve" transform="matrix(1 0 0 -1 105.926 84.136)" fill="#333" font-size="10" stroke="none" stroke-linecap="round" stroke-linejoin="round" stroke-width=".25" font-family="Roboto"><tspan x="0" y="0">custom JSON</tspan></text><path d="M91.788 108.317v-53.95" stroke="#333" stroke-width=".75" stroke-linejoin="miter"/><g id="Group_19" stroke-linejoin="miter" stroke-width=".75"><path d="M83.73 98.124V76.855h16.391v21.269H83.73z" stroke="#ccc" fill="#ccc" stroke-linecap="round"/><path d="M84.453 97.359V77.522h14.879l.002 14.879-4.96 4.958h-9.921z" stroke="#333" fill="#f1f1f1" stroke-linecap="round"/><path d="M94.374 97.359v-4.958l4.66-.005" stroke="#333"/></g><path d="M113.356 106.012a6.634 6.634 0 0 0-6.89 6.362 6.634 6.634 0 0 0 6.362 6.89 6.634 6.634 0 0 0 6.89-6.362 6.634 6.634 0 0 0-6.362-6.89z" stroke-linecap="round" stroke="#333" fill="#ffffd6" stroke-width=".75" stroke-linejoin="miter"/><text xml:space="preserve" transform="matrix(1 0 0 -1 113.017 109.48)" font-size="9" font-family="Roboto" stroke-linecap="round" fill="#333" stroke="none" stroke-linejoin="round" stroke-width=".375"><tspan x="-2.527" y="0">6</tspan></text><g id="Group_20" stroke-linejoin="miter" stroke-linecap="round" stroke-width=".75"><path d="m60.268 354.58 4.208 4.45h-8.414l4.206-4.45z" id="Group_21" stroke="#ccc" fill="#ccc"/><path d="m60.138 356.021 4.208 4.45h-8.414l4.206-4.45z" id="Group_22" stroke="#333" fill="#333"/></g><path d="M29.029 502.459v-37.501h125.529v37.501H29.029z" stroke-linecap="round" stroke="none" fill="#f1f1f1" stroke-width=".75" stroke-linejoin="miter"/><text xml:space="preserve" transform="matrix(1.00002 0 0 -1 38.184 480.456)" stroke-linecap="round" font-size="12.001" font-family="Roboto" stroke="none" stroke-linejoin="round" stroke-width=".25" fill="#333"><tspan x="14.272" y="0">trading partner</tspan></text><g id="Group_23" stroke-linejoin="miter" stroke-linecap="round"><path d="m91.787 460.119 4.208 4.45h-8.414l4.206-4.45z" fill="#fff" stroke-width=".75" stroke="#333"/><path d="m91.788 460.623 5.028 5.341H86.759l5.029-5.341z" fill="#f1f1f1" stroke-width=".882" stroke="none"/></g><text xml:space="preserve" transform="matrix(1 0 0 -1 181.771 156.374)" font-size="8" font-family="Fira Code" stroke-linecap="round" stroke-linejoin="round" stroke="none" stroke-width=".375" fill="#333"><tspan x="-7.201" y="0">{*}</tspan></text><text xml:space="preserve" transform="matrix(1 0 0 -1 254.767 198.52)" font-size="8" font-family="Fira Code" stroke-linecap="round" stroke-linejoin="round" stroke="none" stroke-width=".375" fill="#333"><tspan x="-7.201" y="0">{*}</tspan></text><text xml:space="preserve" transform="matrix(1 0 0 -1 91.925 84.035)" font-size="8" font-family="Fira Code" stroke-linecap="round" stroke-linejoin="round" stroke="none" stroke-width=".375" fill="#333"><tspan x="-4.801" y="0">{}</tspan></text><text xml:space="preserve" transform="matrix(1 0 0 -1 255.424 122.816)" font-size="8" font-family="Fira Code" stroke-linecap="round" stroke-linejoin="round" stroke="none" stroke-width=".375" fill="#333"><tspan x="-4.801" y="0">{}</tspan></text><text xml:space="preserve" transform="matrix(1 0 0 -1 202.321 231.253)" font-size="8" font-family="Fira Code" stroke-linejoin="round" stroke-linecap="round" stroke="none" stroke-width=".375" fill="#333"><tspan x="-2.4" y="0">*</tspan></text><path d="M92.263 390.413v-29.999h62.249v29.999H92.263z" stroke="none" fill="#333" stroke-width=".75" stroke-linecap="round" stroke-linejoin="miter"/><g id="Group_24" stroke-linejoin="miter" stroke-linecap="round" stroke-width=".75"><path d="m123.451 354.58 4.208 4.45h-8.414l4.206-4.45z" id="Group_25" stroke="#ccc" fill="#ccc"/><path d="m123.321 356.021 4.208 4.45h-8.414l4.206-4.45z" id="Group_26" stroke="#333" fill="#333"/></g><text xml:space="preserve" transform="matrix(1 0 0 -1 117.988 371.206)" fill="#f1f1f1" font-size="12" font-family="Roboto" stroke="none" stroke-linecap="round" stroke-linejoin="round" stroke-width=".25"><tspan x="0" y="0">UI</tspan></text><g id="Group_27" font-size="9" font-family="Roboto" stroke-linecap="round"><path d="M142.166 381.813c-4.441-.176-8.191 3.285-8.367 7.725-.176 4.441 3.285 8.191 7.725 8.367 4.441.176 8.191-3.285 8.367-7.725.176-4.441-3.285-8.191-7.725-8.367z" stroke="#333" fill="#ffffd6" stroke-width=".911" stroke-linejoin="miter"/><text xml:space="preserve" transform="matrix(1 0 0 -1 141.53 386.645)" fill="#333" stroke="none" stroke-linejoin="round" stroke-width=".375"><tspan x="-5.328" y="0">1B</tspan></text></g><path d="m60.168 385.792 4.208 4.45h-8.414l4.206-4.45z" id="Group_28" stroke-linejoin="miter" stroke-linecap="round" stroke="#ccc" stroke-width=".75" fill="#ccc"/><path d="m123.392 385.792 4.208 4.45h-8.414l4.206-4.45z" id="Group_29" stroke-linejoin="miter" stroke-linecap="round" stroke="#ccc" stroke-width=".75" fill="#ccc"/><g id="Group_30" font-size="9" font-family="Roboto" stroke-linecap="round"><path d="M42.345 381.813c-4.441-.176-8.191 3.285-8.367 7.725-.176 4.441 3.285 8.191 7.725 8.367 4.441.176 8.191-3.285 8.367-7.725.176-4.441-3.285-8.191-7.725-8.367z" stroke="#333" fill="#ffffd6" stroke-width=".911" stroke-linejoin="miter"/><text xml:space="preserve" transform="matrix(1 0 0 -1 41.709 386.645)" fill="#333" stroke="none" stroke-linejoin="round" stroke-width=".375"><tspan x="-5.462" y="0">1A</tspan></text></g><g id="Group_31"><text xml:space="preserve" transform="matrix(1 0 0 -1 106.723 430.491)" fill="#333" font-size="10" stroke="none" stroke-linecap="round" stroke-linejoin="round" stroke-width=".25" font-family="Roboto"><tspan x="0" y="0">EDI</tspan></text><g id="Group_32" stroke-linejoin="miter" stroke-width=".75"><path d="M84.527 444.479V423.21h16.391v21.269H84.527z" stroke="#ccc" fill="#ccc" stroke-linecap="round"/><path d="M85.25 443.714v-19.837h14.879l.002 14.879-4.96 4.958H85.25z" stroke="#333" fill="#f1f1f1" stroke-linecap="round"/><path d="M95.171 443.714v-4.958l4.66-.005" stroke="#333"/></g><text xml:space="preserve" transform="matrix(1 0 0 -1 92.722 430.39)" font-size="8" font-family="Fira Code" stroke-linecap="round" stroke-linejoin="round" stroke="none" stroke-width=".375" fill="#333"><tspan x="-2.4" y="0">*</tspan></text></g><path d="M123.431 385.074v23.19H60.152v-23.19" stroke-linejoin="miter" stroke-width=".75" stroke="#333"/><g id="Group_33"><text xml:space="preserve" transform="matrix(1 0 0 -1 106.726 271.661)" fill="#333" font-size="10" stroke="none" stroke-linecap="round" stroke-linejoin="round" stroke-width=".25" font-family="Roboto"><tspan x="0" y="0">EDI</tspan></text><g id="Group_34" stroke-linejoin="miter" stroke-width=".75"><path d="M84.53 285.649V264.38h16.391v21.269H84.53z" stroke="#ccc" fill="#ccc" stroke-linecap="round"/><path d="M85.253 284.884v-19.837h14.879l.002 14.879-4.96 4.958h-9.921z" stroke="#333" fill="#f1f1f1" stroke-linecap="round"/><path d="M95.174 284.884v-4.958l4.66-.005" stroke="#333"/></g><text xml:space="preserve" transform="matrix(1 0 0 -1 92.725 271.56)" font-size="8" font-family="Fira Code" stroke-linecap="round" stroke-linejoin="round" stroke="none" stroke-width=".375" fill="#333"><tspan x="-2.4" y="0">*</tspan></text></g><path d="m89.261 236.04.724 6.849h-2.58l2.594 8.128h4.035l-1.652-5.182h3.88l-7.001-9.795z" stroke-width=".453" stroke="#333" fill="#fffe7f" stroke-linejoin="miter"/></g></g></g></svg>